<svg viewBox="0 0 120 130" fill="none" xmlns="http://www.w3.org/2000/svg" aria-label="ForecastIQ logo">
  <defs>
    <linearGradient id="fi-hxB" x1="60" y1="12" x2="60" y2="108" gradientUnits="userSpaceOnUse">
      <stop offset="0%" stop-color="#22d3ee"/>
      <stop offset="50%" stop-color="#06b6d4"/>
      <stop offset="100%" stop-color="#0d9488"/>
    </linearGradient>
    <linearGradient id="fi-hxG" x1="60" y1="12" x2="60" y2="108" gradientUnits="userSpaceOnUse">
      <stop offset="0%" stop-color="#0a2744" stop-opacity="0.72"/>
      <stop offset="50%" stop-color="#071e36" stop-opacity="0.82"/>
      <stop offset="100%" stop-color="#051525" stop-opacity="0.68"/>
    </linearGradient>
    <linearGradient id="fi-fG" x1="46" y1="36" x2="46" y2="85" gradientUnits="userSpaceOnUse">
      <stop offset="0%" stop-color="#22D3EE"/>
      <stop offset="50%" stop-color="#06B6D4"/>
      <stop offset="100%" stop-color="#10B981"/>
    </linearGradient>
    <linearGradient id="fi-bG" x1="0" y1="88" x2="0" y2="44" gradientUnits="userSpaceOnUse">
      <stop offset="0%" stop-color="#10B981"/>
      <stop offset="100%" stop-color="#22D3EE"/>
    </linearGradient>
    <linearGradient id="fi-lnG" x1="46" y1="78" x2="89" y2="34" gradientUnits="userSpaceOnUse">
      <stop offset="0%" stop-color="#06b6d4"/>
      <stop offset="100%" stop-color="#67e8f9"/>
    </linearGradient>
    <radialGradient id="fi-aiD" cx="0.5" cy="0.4" r="0.6">
      <stop offset="0%" stop-color="#ffffff"/>
      <stop offset="55%" stop-color="#b2ebf2" stop-opacity="0.8"/>
      <stop offset="100%" stop-color="#00bcd4" stop-opacity="0.4"/>
    </radialGradient>
    <linearGradient id="fi-glV" x1="0" y1="0" x2="1" y2="0">
      <stop offset="0%" stop-color="white" stop-opacity="0"/>
      <stop offset="30%" stop-color="white" stop-opacity="0.09"/>
      <stop offset="55%" stop-color="white" stop-opacity="0.04"/>
      <stop offset="100%" stop-color="white" stop-opacity="0"/>
    </linearGradient>
    <linearGradient id="fi-glDg" x1="0.2" y1="0" x2="0.8" y2="1">
      <stop offset="0%" stop-color="white" stop-opacity="0.06"/>
      <stop offset="50%" stop-color="white" stop-opacity="0.015"/>
      <stop offset="100%" stop-color="white" stop-opacity="0"/>
    </linearGradient>
    <radialGradient id="fi-btGl" cx="60" cy="106" r="42" gradientUnits="userSpaceOnUse">
      <stop offset="0%" stop-color="#22d3ee" stop-opacity="0.4"/>
      <stop offset="50%" stop-color="#06b6d4" stop-opacity="0.12"/>
      <stop offset="100%" stop-color="#06b6d4" stop-opacity="0"/>
    </radialGradient>
    <clipPath id="fi-hxC">
      <path d="M55.7,14.5Q60,12 64.3,14.5L95.7,32.5Q100,35 100,40L100,80Q100,85 95.7,87.5L64.3,105.5Q60,108 55.7,105.5L24.3,87.5Q20,85 20,80L20,40Q20,35 24.3,32.5Z"/>
    </clipPath>
    <filter id="fi-nb" x="-50%" y="-50%" width="200%" height="200%">
      <feGaussianBlur stdDeviation="5" result="w"/>
      <feGaussianBlur in="SourceGraphic" stdDeviation="1.8" result="t"/>
      <feMerge><feMergeNode in="w"/><feMergeNode in="t"/><feMergeNode in="SourceGraphic"/></feMerge>
    </filter>
    <filter id="fi-bf" x="-40%" y="-20%" width="180%" height="140%">
      <feGaussianBlur stdDeviation="7"/>
    </filter>
    <filter id="fi-eg" x="-20%" y="-20%" width="140%" height="140%">
      <feGaussianBlur stdDeviation="1.2" result="b"/>
      <feMerge><feMergeNode in="b"/><feMergeNode in="SourceGraphic"/></feMerge>
    </filter>
    <filter id="fi-fg" x="-25%" y="-25%" width="150%" height="150%">
      <feGaussianBlur stdDeviation="2" result="b"/>
      <feMerge><feMergeNode in="b"/><feMergeNode in="SourceGraphic"/></feMerge>
    </filter>
    <filter id="fi-dg" x="-80%" y="-80%" width="260%" height="260%">
      <feGaussianBlur stdDeviation="2.5" result="b"/>
      <feMerge><feMergeNode in="b"/><feMergeNode in="SourceGraphic"/></feMerge>
    </filter>
    <filter id="fi-is" x="-5%" y="-5%" width="110%" height="110%">
      <feDropShadow dx="0" dy="1.5" stdDeviation="2.5" flood-color="#000" flood-opacity="0.18"/>
    </filter>
    <filter id="fi-sp" x="-5%" y="-5%" width="110%" height="110%">
      <feSpecularLighting surfaceScale="3" specularConstant="0.35" specularExponent="28" lighting-color="#fff" result="spec">
        <fePointLight x="45" y="15" z="100"/>
      </feSpecularLighting>
      <feComposite in="spec" in2="SourceGraphic" operator="in" result="si"/>
      <feColorMatrix in="si" type="matrix" values="0 0 0 0 1 0 0 0 0 1 0 0 0 0 1 0 0 0 0.08 0" result="sc"/>
      <feMerge><feMergeNode in="SourceGraphic"/><feMergeNode in="sc"/></feMerge>
    </filter>
  </defs>
  <g opacity="0.18">
    <ellipse cx="60" cy="112" rx="36" ry="4.5" stroke="#0e7490" stroke-width="0.45" fill="none" opacity="0.4"/>
    <ellipse cx="60" cy="114" rx="28" ry="3.5" stroke="#06b6d4" stroke-width="0.35" fill="none" opacity="0.3"/>
    <ellipse cx="60" cy="116" rx="20" ry="2.5" stroke="#22d3ee" stroke-width="0.28" fill="none" opacity="0.22"/>
    <ellipse cx="60" cy="117.5" rx="13" ry="1.8" stroke="#22d3ee" stroke-width="0.2" fill="none" opacity="0.14"/>
  </g>
  <ellipse cx="60" cy="104" rx="38" ry="12" fill="url(#fi-btGl)" filter="url(#fi-bf)"/>
  <path d="M55.7,14.5Q60,12 64.3,14.5L95.7,32.5Q100,35 100,40L100,80Q100,85 95.7,87.5L64.3,105.5Q60,108 55.7,105.5L24.3,87.5Q20,85 20,80L20,40Q20,35 24.3,32.5Z" stroke="#22d3ee" stroke-width="3.5" fill="none" opacity="0.35" filter="url(#fi-nb)"/>
  <path d="M55.7,14.5Q60,12 64.3,14.5L95.7,32.5Q100,35 100,40L100,80Q100,85 95.7,87.5L64.3,105.5Q60,108 55.7,105.5L24.3,87.5Q20,85 20,80L20,40Q20,35 24.3,32.5Z" fill="url(#fi-hxG)" filter="url(#fi-is)"/>
  <g clip-path="url(#fi-hxC)" filter="url(#fi-sp)">
    <rect x="36" y="10" width="20" height="100" fill="url(#fi-glV)"/>
    <rect x="18" y="10" width="86" height="100" fill="url(#fi-glDg)" transform="rotate(-18 60 60)"/>
    <line x1="44" y1="16" x2="44" y2="104" stroke="white" stroke-width="0.35" opacity="0.05"/>
    <ellipse cx="55" cy="22" rx="25" ry="10" fill="white" opacity="0.025"/>
  </g>
  <path d="M55.7,14.5Q60,12 64.3,14.5L95.7,32.5Q100,35 100,40L100,80Q100,85 95.7,87.5L64.3,105.5Q60,108 55.7,105.5L24.3,87.5Q20,85 20,80L20,40Q20,35 24.3,32.5Z" stroke="url(#fi-hxB)" stroke-width="2" stroke-linejoin="round" fill="none"/>
  <path d="M56.5,16Q60,14 63.5,16L94.5,33.5Q98,35.5 98,40L98,80Q98,84.5 94.5,86.5L63.5,104Q60,106 56.5,104L25.5,86.5Q22,84.5 22,80L22,40Q22,35.5 25.5,33.5Z" stroke="white" stroke-width="0.25" fill="none" opacity="0.07"/>
  <line x1="24.3" y1="32.5" x2="55.7" y2="14.5" stroke="#b2ebf2" stroke-width="0.6" opacity="0.2"/>
  <line x1="64.3" y1="14.5" x2="95.7" y2="32.5" stroke="#80deea" stroke-width="0.45" opacity="0.12"/>
  <path d="M28,39Q28,36 31,36L61,36Q64,36 64,39L64,41.5Q64,44.5 61,44.5L40,44.5L40,58L53,58Q56,58 56,60.5L56,62Q56,65 53,65L40,65L40,82Q40,85 37,85L31,85Q28,85 28,82Z" fill="url(#fi-fG)" filter="url(#fi-fg)"/>
  <rect x="62" y="72" width="6" height="16" rx="1.5" fill="url(#fi-bG)" opacity="0.8" filter="url(#fi-eg)"/>
  <rect x="70" y="64" width="6" height="24" rx="1.5" fill="url(#fi-bG)" opacity="0.85" filter="url(#fi-eg)"/>
  <rect x="78" y="55" width="6" height="33" rx="1.5" fill="url(#fi-bG)" opacity="0.92" filter="url(#fi-eg)"/>
  <rect x="86" y="46" width="6" height="42" rx="1.5" fill="url(#fi-bG)" filter="url(#fi-eg)"/>
  <polyline points="46,78 65,66 73,56 81,46 89,34" stroke="url(#fi-lnG)" stroke-width="1.8" stroke-linecap="round" stroke-linejoin="round" fill="none" filter="url(#fi-eg)"/>
  <circle cx="65" cy="66" r="2.5" fill="#06b6d4" filter="url(#fi-eg)"/>
  <circle cx="73" cy="56" r="2.5" fill="#22d3ee" filter="url(#fi-eg)"/>
  <circle cx="81" cy="46" r="2.5" fill="#67e8f9" filter="url(#fi-eg)"/>
  <circle cx="89" cy="34" r="4" fill="url(#fi-aiD)" filter="url(#fi-dg)"/>
  <circle cx="89" cy="34" r="1.8" fill="white" opacity="0.9"/>
  <circle cx="16" cy="22" r="1.3" fill="#22d3ee" opacity="0.45"/>
  <circle cx="94" cy="16" r="1" fill="#34d399" opacity="0.4"/>
  <circle cx="108" cy="50" r="0.8" fill="#80deea" opacity="0.35"/>
  <circle cx="12" cy="66" r="0.7" fill="#22d3ee" opacity="0.3"/>
  <circle cx="40" cy="8" r="0.8" fill="#06b6d4" opacity="0.3"/>
  <circle cx="76" cy="5" r="0.6" fill="#10b981" opacity="0.25"/>
</svg>
